<svg width="27" height="36" viewBox="0 0 27 36" fill="none" xmlns="http://www.w3.org/2000/svg">
<path  fill-rule="evenodd" clip-rule="evenodd" d="M26.4746 10.0169C26.4902 11.7884 25.9331 13.5188 24.8882 14.9387C23.792 16.9778 20.2393 18.6126 20.2393 18.6126C18.897 19.1653 17.459 19.4368 16.0107 19.4134H7.34766V23.0364H26.2236V25.8137H7.34766V33.0169L11.2056 33.3548V35.4446H0.671875V33.3548L4.53027 33.0169V25.6985L0.490234 25.7219V23.0598L4.53027 22.9954V2.92507L0.671875 2.58913V0.473897H14.9927C18.0229 0.272726 21.0288 1.13796 23.5039 2.92507C25.5381 4.68288 26.6387 7.30983 26.4746 10.0169ZM21.4819 4.77077C19.6011 3.39968 17.3042 2.74343 14.9946 2.92116H7.34961V16.9583H14.6636C17.7725 16.9583 20.0454 16.3235 21.4819 15.0579C22.9204 13.7864 23.7134 11.9212 23.6362 9.98757C23.7461 8.00515 22.9517 6.08132 21.4819 4.77077Z" fill="white"/>
</svg>
